<?xml version="1.0" encoding="utf-8"?>
<!-- Generator: Adobe Illustrator 22.0.1, SVG Export Plug-In . SVG Version: 6.00 Build 0)  -->
<svg version="1.1" id="Layer_1" xmlns="http://www.w3.org/2000/svg" xmlns:xlink="http://www.w3.org/1999/xlink" x="0px" y="0px"
	 viewBox="0 0 31.2 31.2" style="enable-background:new 0 0 31.2 31.2;" xml:space="preserve">
<path d="M24.8,22.6c1.8-2.2,2.8-5.1,2.8-8.1c0-7.3-5.9-13.2-13.2-13.2S1.2,7.2,1.2,14.4c0,7.3,5.9,13.2,13.2,13.2
	c3.1,0,5.9-1.1,8.1-2.8l4.6,4.6c0.3,0.3,0.7,0.5,1.1,0.5s0.8-0.2,1.1-0.5c0.6-0.6,0.6-1.6,0-2.3L24.8,22.6z M4.4,14.4
	c0-5.5,4.5-10,10-10s10,4.5,10,10c0,5.5-4.5,10-10,10S4.4,20,4.4,14.4z"/>
</svg>
